<?xml version="1.0" encoding="UTF-8"?>
<svg version="1.1" xmlns="http://www.w3.org/2000/svg" width="1024" height="1024">
<path d="M0 0 C337.92 0 675.84 0 1024 0 C1024 337.92 1024 675.84 1024 1024 C686.08 1024 348.16 1024 0 1024 C0 686.08 0 348.16 0 0 Z " fill="#FEFEFE" transform="translate(0,0)"/>
<path d="M0 0 C0.91868362 -0.00979385 1.83736725 -0.01958771 2.78388977 -0.02967834 C22.28924086 -0.19488645 41.05865324 -0.15477615 60.15625 4.23828125 C61.12079102 4.44195312 62.08533203 4.645625 63.07910156 4.85546875 C99.15471097 12.48752715 137.6745698 28.75660105 164.15625 55.23828125 C164.53515625 57.625 164.53515625 57.625 164.15625 60.23828125 C162.43359375 62.1953125 162.43359375 62.1953125 160.09375 64.05078125 C155.60885479 67.79402452 151.92506976 71.79529761 148.15625 76.23828125 C143.46270911 81.56042137 138.7236419 86.80364115 133.65234375 91.76953125 C132.37565199 93.02288922 131.13668804 94.31448554 129.90625 95.61328125 C126.64704947 98.63968174 123.21653616 98.42852341 118.96875 98.48828125 C117.88207031 98.5140625 116.79539062 98.53984375 115.67578125 98.56640625 C108.49747403 97.8971745 103.23859181 94.87389225 97.46875 90.67578125 C66.98309959 69.53712779 27.22018017 61.26230917 -9.34375 67.36328125 C-43.10692148 73.67386246 -72.89968667 89.664111 -96.84375 114.23828125 C-97.66166016 114.97111328 -97.66166016 114.97111328 -98.49609375 115.71875 C-122.67184391 138.11469033 -138.22587762 176.39299521 -139.78515625 208.99609375 C-139.81416016 210.60097656 -139.81416016 210.60097656 -139.84375 212.23828125 C-139.86808105 212.99334961 -139.89241211 213.74841797 -139.91748047 214.52636719 C-141.28529277 259.40080557 -126.15502371 298.49590381 -96.21484375 331.71875 C-90.75385459 337.52161327 -85.20075457 342.79461866 -78.84375 347.61328125 C-78.10318359 348.17490967 -77.36261719 348.73653809 -76.59960938 349.31518555 C-42.59393888 374.71416894 0.10060332 386.54331943 42.41113281 380.46875 C45.70450114 379.88197268 48.93416655 379.12762384 52.15625 378.23828125 C52.89762207 378.03428711 53.63899414 377.83029297 54.40283203 377.62011719 C68.4166605 373.62115554 83.48798308 368.08636563 91.49609375 355.05859375 C95.61097935 347.06312209 96.43259757 339.1125556 94.5078125 330.25390625 C92.29683597 323.56428495 88.91388688 318.39476194 84.15625 313.23828125 C83.20298828 312.20380859 83.20298828 312.20380859 82.23046875 311.1484375 C72.32762749 301.43209043 58.1220284 297.26474509 45.18078613 293.09603882 C42.83858376 292.3414821 40.5005343 291.57505708 38.16308594 290.8059082 C33.49751643 289.27291753 28.82754013 287.75373768 24.15625 286.23828125 C-21.94127832 271.28304915 -21.94127832 271.28304915 -40.84375 253.23828125 C-41.46894531 252.68785156 -42.09414063 252.13742187 -42.73828125 251.5703125 C-56.47165015 239.01497525 -62.8975526 219.42499982 -64.02832031 201.27587891 C-65.23322729 172.82187055 -59.24179953 148.9047917 -40.46875 126.92578125 C-28.12086076 113.73359189 -10.24721771 105.48480836 7.82338047 104.78335965 C11.97685055 104.70123036 16.12724638 104.71231676 20.28125 104.73657227 C22.15385848 104.73278006 24.02646415 104.72727265 25.89906311 104.72019958 C30.93786202 104.70635294 35.97631539 104.71733469 41.01509476 104.7339108 C46.30620789 104.74785247 51.59730282 104.74129153 56.88842773 104.73777771 C65.76144935 104.73508465 74.63433497 104.74847962 83.50732422 104.77172852 C93.75666151 104.79839821 104.00577252 104.80006115 114.25513268 104.78834015 C124.13992576 104.77755734 134.02463723 104.78374918 143.90942383 104.79789543 C148.10703467 104.80364424 152.30458557 104.80358141 156.50219727 104.79883003 C161.4403035 104.79405316 166.37816209 104.80419138 171.31622124 104.82578468 C173.12579958 104.83134059 174.93540179 104.83182885 176.74498177 104.82683182 C179.21836335 104.82085875 181.69099272 104.83342183 184.16430664 104.8506012 C185.2331308 104.84158613 185.2331308 104.84158613 186.32354736 104.83238894 C193.07793132 104.91747146 198.76735262 107.08685807 203.81519222 111.71130466 C210.82913245 119.69762911 209.71691243 130.26482015 209.65795898 140.20727539 C209.66174622 142.02811602 209.66724958 143.84895375 209.67433167 145.66978455 C209.68824982 150.59537493 209.67714252 155.52061458 209.66062045 160.44618535 C209.64673144 165.61007642 209.65323433 170.77394793 209.65675354 175.93785095 C209.65945237 184.60714342 209.64600731 193.27629718 209.62280273 201.94555664 C209.59618671 211.95844703 209.59444982 221.97110569 209.6061911 231.98401934 C209.61698155 241.63066187 209.61077239 251.27722083 209.59663582 260.92385674 C209.59088787 265.0229535 209.5909493 269.12198887 209.59570122 273.2210865 C209.60048425 278.0499552 209.59031443 282.87857109 209.56874657 287.70739174 C209.56319689 289.47623085 209.56269664 291.24509435 209.56769943 293.01393509 C209.57368604 295.43474368 209.5610834 297.85478803 209.54393005 300.27552795 C209.55294512 301.31693981 209.55294512 301.31693981 209.56214231 302.3793903 C209.47817658 308.92846186 207.88758332 314.2039646 203.65625 319.17578125 C199.62178624 322.50421385 196.26954864 322.67161164 191.15625 322.23828125 C185.05253959 319.21510119 182.9992128 314.93649655 180.03125 308.98828125 C169.3200216 288.61829819 155.30315064 272.91170596 136.15625 260.23828125 C135.3621875 259.6865625 134.568125 259.13484375 133.75 258.56640625 C114.56264829 246.0000421 90.78326989 241.01834271 68.15625 241.11328125 C67.20363281 241.10941406 66.25101563 241.10554687 65.26953125 241.1015625 C64.36589844 241.10285156 63.46226562 241.10414063 62.53125 241.10546875 C61.71398437 241.10659668 60.89671875 241.10772461 60.0546875 241.10888672 C58.14534541 241.03005707 58.14534541 241.03005707 57.15625 242.23828125 C58.13271484 242.59543213 59.10917969 242.95258301 60.11523438 243.32055664 C63.82233474 244.67799197 67.52695813 246.04208598 71.23095703 247.40795898 C72.81852991 247.99239164 74.40672392 248.57514048 75.99560547 249.15600586 C84.36687701 252.21769637 92.67878206 255.36294244 100.8515625 258.92578125 C101.48139038 259.19975235 102.11121826 259.47372345 102.76013184 259.7559967 C113.4953254 264.51968952 123.3874548 270.38731486 132.15625 278.23828125 C133.04957031 279.0375 133.94289063 279.83671875 134.86328125 280.66015625 C152.62769363 297.45560069 163.95062204 320.76812241 164.69970703 345.3190918 C164.83650801 367.6369438 158.39585331 386.68202104 143.15625 403.23828125 C142.640625 403.84542969 142.125 404.45257812 141.59375 405.078125 C114.67460519 434.87144933 65.33563594 445.86457265 27.15625 448.23828125 C-35.1919256 450.4750983 -95.20731694 430.18776675 -141.24121094 387.57910156 C-142.7808576 386.13783488 -144.31361978 384.68964404 -145.84375 383.23828125 C-146.34696777 382.76374512 -146.85018555 382.28920898 -147.36865234 381.80029297 C-182.36154958 348.58574175 -202.8209776 303.24483483 -210.84375 256.23828125 C-210.97797363 255.45694824 -211.11219727 254.67561523 -211.25048828 253.87060547 C-219.9230875 200.50545559 -205.33865708 139.98243057 -173.96875 95.98828125 C-172.29294077 93.71242954 -170.57394793 91.47293586 -168.84375 89.23828125 C-168.38339355 88.63129395 -167.92303711 88.02430664 -167.44873047 87.39892578 C-153.90114124 69.61629186 -138.10803368 54.1200742 -119.84375 41.23828125 C-119.24208008 40.80257812 -118.64041016 40.366875 -118.02050781 39.91796875 C-84.49339189 15.69671714 -41.50745577 0.36638331 0 0 Z " fill="#002EC5" transform="translate(491.84375,147.76171875)"/>
<path d="M0 0 C1.87260848 -0.0037922 3.74521415 -0.00929961 5.61781311 -0.01637268 C10.65661202 -0.03021933 15.69506539 -0.01923758 20.73384476 -0.00266147 C26.02495789 0.01128021 31.31605282 0.00471926 36.60717773 0.00120544 C45.48019935 -0.00148762 54.35308497 0.01190736 63.22607422 0.03515625 C73.47541151 0.06182594 83.72452252 0.06348889 93.97388268 0.05176789 C103.85867576 0.04098508 113.74338723 0.04717691 123.62817383 0.06132317 C127.82578467 0.06707198 132.02333557 0.06700915 136.22094727 0.06225777 C141.1590535 0.05748089 146.09691209 0.06761911 151.03497124 0.08921242 C152.84454958 0.09476833 154.65415179 0.09525658 156.46373177 0.09025955 C158.93711335 0.08428648 161.40974272 0.09684956 163.88305664 0.11402893 C164.59560608 0.10801889 165.30815552 0.10200884 166.04229736 0.09581667 C172.79668132 0.18089919 178.48610262 2.3502858 183.53394222 6.9747324 C190.54788245 14.96105684 189.43566243 25.52824788 189.37670898 35.47070312 C189.38049622 37.29154375 189.38599958 39.11238149 189.39308167 40.93321228 C189.40699982 45.85880266 189.39589252 50.78404231 189.37937045 55.70961308 C189.36548144 60.87350415 189.37198433 66.03737566 189.37550354 71.20127869 C189.37820237 79.87057116 189.36475731 88.53972491 189.34155273 97.20898438 C189.31493671 107.22187477 189.31319982 117.23453342 189.3249411 127.24744707 C189.33573155 136.8940896 189.32952239 146.54064857 189.31538582 156.18728447 C189.30963787 160.28638123 189.3096993 164.3854166 189.31445122 168.48451424 C189.31923425 173.31338293 189.30906443 178.14199883 189.28749657 182.97081947 C189.28194689 184.73965859 189.28144664 186.50852208 189.28644943 188.27736282 C189.29243604 190.69817141 189.2798334 193.11821576 189.26268005 195.53895569 C189.27169512 196.58036755 189.27169512 196.58036755 189.28089231 197.64281803 C189.19692658 204.1918896 187.60633332 209.46739234 183.375 214.43920898 C179.34053624 217.76764159 175.98829864 217.93503938 170.875 217.50170898 C164.77128959 214.47852893 162.7179628 210.19992429 159.75 204.25170898 C149.0387716 183.88172592 135.02190064 168.1751337 115.875 155.50170898 C115.0809375 154.94999023 114.286875 154.39827148 113.46875 153.82983398 C94.28139829 141.26346984 70.50201989 136.28177044 47.875 136.37670898 C46.44607422 136.3709082 46.44607422 136.3709082 44.98828125 136.36499023 C44.08464844 136.3662793 43.18101562 136.36756836 42.25 136.36889648 C41.43273437 136.37002441 40.61546875 136.37115234 39.7734375 136.37231445 C37.86409541 136.29348481 37.86409541 136.29348481 36.875 137.50170898 C37.85146484 137.85885986 38.82792969 138.21601074 39.83398438 138.58398438 C43.54108474 139.94141971 47.24570813 141.30551372 50.94970703 142.67138672 C52.53727991 143.25581938 54.12547392 143.83856821 55.71435547 144.41943359 C64.08562701 147.4811241 72.39753206 150.62637018 80.5703125 154.18920898 C81.20014038 154.46318008 81.82996826 154.73715118 82.47888184 155.01942444 C93.2140754 159.78311725 103.1062048 165.65074259 111.875 173.50170898 C112.76832031 174.30092773 113.66164063 175.10014648 114.58203125 175.92358398 C132.34644363 192.71902842 143.66937204 216.03155014 144.41845703 240.58251953 C144.55493226 262.84722798 138.15028838 282.01540675 122.875 298.50170898 C122.23175781 299.20166992 121.58851563 299.90163086 120.92578125 300.62280273 C117.79555022 303.88883555 114.82508202 306.24451926 110.875 308.50170898 C92.88576313 290.17246936 78.10919791 267.55106388 74.875 241.50170898 C74.90413434 239.43846792 74.96775837 237.37547959 75.0625 235.31420898 C75.11212927 224.40817584 71.1859046 216.42550379 63.875 208.50170898 C62.92173828 207.46723633 62.92173828 207.46723633 61.94921875 206.41186523 C52.04637749 196.69551816 37.8407784 192.52817282 24.89953613 188.35946655 C22.55733376 187.60490984 20.2192843 186.83848481 17.88183594 186.06933594 C13.21626643 184.53634527 8.54629013 183.01716542 3.875 181.50170898 C-42.22252832 166.54647689 -42.22252832 166.54647689 -61.125 148.50170898 C-61.75019531 147.9512793 -62.37539063 147.40084961 -63.01953125 146.83374023 C-76.75290015 134.27840298 -83.1788026 114.68842755 -84.30957031 96.53930664 C-85.51447729 68.08529828 -79.52304953 44.16821944 -60.75 22.18920898 C-44.32751187 4.64381569 -22.99937087 -0.13429488 0 0 Z " fill="#8A58EB" transform="translate(512.125,252.498291015625)"/>
<path d="M0 0 C7.26 0 14.52 0 22 0 C22.33 14.85 22.66 29.7 23 45 C25.64 42.69 28.28 40.38 31 38 C41.97937973 32.51031014 51.53756627 31.42466636 63.4453125 35.1015625 C74.44019806 38.96826537 82.77791978 45.57418058 88 56.125 C91.49333627 63.53154468 93.35912976 70.10873469 93.25 78.25 C93.24178223 78.99725342 93.23356445 79.74450684 93.22509766 80.5144043 C92.95418789 94.01474122 89.80589669 105.26180371 80.375 115.375 C69.66178795 125.43990875 58.5390665 127.50798134 44.46875 127.27734375 C35.38254378 126.89622366 29.43943061 123.15945537 23 117 C22.67 119.97 22.34 122.94 22 126 C14.74 126 7.48 126 0 126 C0 84.42 0 42.84 0 0 Z " fill="#8856EA" transform="translate(411,661)"/>
<path d="M0 0 C2.27083005 1.66277308 4.28469411 3.39444281 6.30078125 5.35546875 C7.15929687 6.17337891 7.15929687 6.17337891 8.03515625 7.0078125 C14.27062861 13.56740595 16.30078125 20.41870351 16.30078125 29.35546875 C8.71078125 29.35546875 1.12078125 29.35546875 -6.69921875 29.35546875 C-7.68921875 25.39546875 -7.68921875 25.39546875 -8.69921875 21.35546875 C-14.14351762 15.79018546 -18.9728419 14.09297604 -26.55078125 13.984375 C-27.38351562 13.98308594 -28.21625 13.98179687 -29.07421875 13.98046875 C-30.31171875 13.94373047 -30.31171875 13.94373047 -31.57421875 13.90625 C-37.47250715 13.87816291 -40.86529937 14.94511077 -45.69921875 18.35546875 C-48.53311341 21.62534721 -49.59923422 23.55559249 -50.13671875 27.85546875 C-49.63757965 31.84858155 -49.00361594 34.04289779 -46.69921875 37.35546875 C-38.50233559 43.72373465 -28.29179259 45.69422851 -18.47045898 48.4777832 C9.7725942 56.53695841 9.7725942 56.53695841 16.8359375 69.08203125 C21.25164546 78.60224841 21.65892991 87.09458934 18.26953125 97.01171875 C14.43148422 106.2973164 7.77941454 113.35502496 -1.4753418 117.44580078 C-9.55685682 120.75151216 -16.8588055 121.85103497 -25.57421875 121.73046875 C-26.6327002 121.72031738 -27.69118164 121.71016602 -28.78173828 121.69970703 C-43.17045507 121.41357408 -54.37592961 117.75641891 -65.171875 107.9765625 C-72.09520293 100.62827326 -74.69921875 92.27181819 -74.69921875 82.35546875 C-67.10921875 82.35546875 -59.51921875 82.35546875 -51.69921875 82.35546875 C-50.70921875 85.65546875 -49.71921875 88.95546875 -48.69921875 92.35546875 C-44.46547188 97.73347154 -39.36892486 100.26175413 -32.69921875 101.35546875 C-23.68265709 102.01863877 -15.2874819 101.44552352 -7.63671875 96.29296875 C-4.63463981 93.29088981 -4.47179479 91.26030201 -4.32421875 87.10546875 C-4.38194511 83.09086246 -4.61401526 81.50663623 -6.63671875 77.91796875 C-13.79074993 71.93194266 -22.93494425 70.04225517 -31.76171875 67.60546875 C-61.92920856 58.91016943 -61.92920856 58.91016943 -69.69921875 46.35546875 C-74.37160922 37.68200829 -75.15906797 28.1906568 -73.109375 18.59375 C-69.94169955 9.2950898 -63.25240631 2.34303294 -54.63671875 -2.14453125 C-38.12113894 -9.93789127 -15.70405586 -9.56788353 0 0 Z " fill="#8856EA" transform="translate(586.69921875,666.64453125)"/>
<path d="M0 0 C9.72545152 7.77292301 15.44817811 19.40885931 17.85546875 31.4453125 C9.60546875 31.4453125 1.35546875 31.4453125 -7.14453125 31.4453125 C-8.46453125 28.4753125 -9.78453125 25.5053125 -11.14453125 22.4453125 C-15.40576622 15.69305708 -20.59835465 12.68262114 -28.14453125 10.4453125 C-29.09585938 10.15914062 -29.09585938 10.15914062 -30.06640625 9.8671875 C-40.13126777 7.82394494 -49.62073147 9.61711055 -58.39453125 14.765625 C-67.63766855 21.17279972 -72.76897554 30.57636575 -75.14453125 41.4453125 C-76.35242498 57.18453379 -75.39939509 71.73998922 -65.14453125 84.4453125 C-62.67804729 86.90667927 -60.16627743 88.72097661 -57.14453125 90.4453125 C-56.45230469 90.85652344 -55.76007813 91.26773438 -55.046875 91.69140625 C-46.38004681 95.98765556 -35.3166161 95.81347078 -26.0078125 93.75 C-15.75658003 90.01371619 -12.12359532 84.40344064 -7.14453125 74.4453125 C0.77546875 74.4453125 8.69546875 74.4453125 16.85546875 74.4453125 C13.29915523 88.6705666 6.99389209 99.75746951 -5.20703125 108.2578125 C-20.30169377 117.03184499 -38.05736866 119.2311333 -55.18359375 115.74609375 C-58.32503629 114.85764282 -61.17775319 113.80191614 -64.14453125 112.4453125 C-65.56378906 111.80916016 -65.56378906 111.80916016 -67.01171875 111.16015625 C-82.78490306 103.31725713 -92.40113775 89.98970118 -98.1171875 73.66796875 C-103.49112651 54.64672417 -100.97257493 34.48026734 -91.765625 17.19140625 C-83.52960299 3.23978342 -70.84403526 -5.82080324 -55.47265625 -10.7265625 C-36.0427788 -15.18167245 -15.98759962 -11.59028169 0 0 Z " fill="#8856EA" transform="translate(236.14453125,671.5546875)"/>
<path d="M0 0 C7.92 0 15.84 0 24 0 C27.37789483 7.96570432 30.5200328 15.96085573 33.42578125 24.109375 C33.81823532 25.20219788 34.21068939 26.29502075 34.61503601 27.42095947 C35.85039066 30.86295309 37.08151907 34.30644009 38.3125 37.75 C39.15662023 40.10426737 40.00101881 42.45843496 40.84570312 44.8125 C42.9003499 50.54051879 44.95154252 56.26976507 47 62 C49.21752782 57.08722287 51.38630644 52.18484756 53.26171875 47.12890625 C53.65439941 46.0716333 54.04708008 45.01436035 54.45166016 43.92504883 C54.8594873 42.81540771 55.26731445 41.7057666 55.6875 40.5625 C56.33017822 38.82166138 56.33017822 38.82166138 56.98583984 37.0456543 C61.49833111 24.75594643 65.75744579 12.38552116 70 0 C77.92 0 85.84 0 94 0 C93.2599563 3.70021852 92.50812075 6.55578753 91.15258789 9.99414062 C90.57819725 11.45982735 90.57819725 11.45982735 89.99220276 12.9551239 C89.36377724 14.53968132 89.36377724 14.53968132 88.72265625 16.15625 C88.06504555 17.82860466 88.06504555 17.82860466 87.39414978 19.53474426 C86.2020586 22.56317771 85.00616656 25.59007165 83.80804443 28.6161232 C82.81190619 31.13321224 81.81820799 33.65126167 80.82442665 36.16928196 C78.29177463 42.58598905 75.75291506 49.00022188 73.21157265 55.41349125 C71.13520541 60.65495011 69.06814703 65.90004699 67.00230408 71.1456604 C65.38644082 75.244289 63.76412495 79.34033749 62.13961792 83.43554688 C61.387772 85.33357378 60.63814986 87.23248329 59.89089966 89.13232422 C47.68902436 120.12796792 47.68902436 120.12796792 36.0546875 125.3125 C28.21817144 128.03167666 21.25085524 128.36267496 13 128 C13 121.73 13 115.46 13 109 C15.02125 108.773125 17.0425 108.54625 19.125 108.3125 C25.06661738 107.38250771 28.11241664 106.60371714 32 102 C35.28067187 96.49693751 35.38439693 92.09738145 34 86 C32.38368387 81.31564253 30.51658891 76.75564697 28.59719849 72.18838501 C27.605202 69.82788986 26.62696281 67.46210111 25.65209961 65.09448242 C24.2243857 61.62904816 22.79161104 58.16576519 21.35595703 54.70361328 C17.4728514 45.32168055 13.66317167 35.90977941 9.85345459 26.49786377 C8.57153196 23.3347859 7.28433715 20.17389068 5.99658203 17.01318359 C5.20714967 15.06746683 4.4179146 13.12167 3.62890625 11.17578125 C3.26087387 10.27540634 2.89284149 9.37503143 2.51365662 8.44737244 C2.18116409 7.62467361 1.84867157 6.80197479 1.50610352 5.9543457 C1.21381363 5.23543655 0.92152374 4.5165274 0.62037659 3.77583313 C0 2 0 2 0 0 Z " fill="#8856EA" transform="translate(612,697)"/>
<path d="M0 0 C9.05975534 6.54671367 12.93314494 14.61820456 15.3125 25.375 C15.79452628 30.33290542 15.78284059 35.22960902 15.703125 40.20703125 C15.69563957 41.57849796 15.68995757 42.94997556 15.68597412 44.32145691 C15.67089815 47.88411411 15.63177982 51.44609066 15.5871582 55.00848389 C15.54580901 58.66246337 15.52787963 62.31655577 15.5078125 65.97070312 C15.46526158 73.10576945 15.39506689 80.24026789 15.3125 87.375 C7.7225 87.375 0.1325 87.375 -7.6875 87.375 C-7.70208252 85.5585498 -7.71666504 83.74209961 -7.73168945 81.87060547 C-7.78342656 75.85544175 -7.84873535 69.8405524 -7.92321491 63.82563591 C-7.96785957 60.18032943 -8.00712825 56.53513319 -8.03393555 52.88964844 C-8.06002811 49.36865763 -8.10047142 45.84809237 -8.15068626 42.32736588 C-8.17538358 40.33673999 -8.18538447 38.34594925 -8.19514465 36.35519409 C-8.21493881 35.13438141 -8.23473297 33.91356873 -8.25512695 32.65576172 C-8.27178154 31.05025955 -8.27178154 31.05025955 -8.28877258 29.412323 C-8.91560247 24.63741977 -10.81732528 20.58237995 -14.625 17.5625 C-19.60835614 14.0029599 -24.68157105 13.66493943 -30.6875 14.375 C-35.9906949 16.08991715 -39.66686384 18.61168914 -42.6875 23.375 C-44.47684693 27.15702301 -44.95276056 30.1877806 -45.00634766 34.35864258 C-45.02621735 35.53948929 -45.04608704 36.720336 -45.06655884 37.93696594 C-45.08388565 39.83408577 -45.08388565 39.83408577 -45.1015625 41.76953125 C-45.12092865 43.07202316 -45.1402948 44.37451508 -45.1602478 45.71647644 C-45.21144518 49.1670735 -45.25113676 52.61770944 -45.28839111 56.06848145 C-45.32850888 59.59457926 -45.37956562 63.12051708 -45.4296875 66.64648438 C-45.52629982 73.55587898 -45.60973937 80.46536777 -45.6875 87.375 C-53.2775 87.375 -60.8675 87.375 -68.6875 87.375 C-68.6875 57.345 -68.6875 27.315 -68.6875 -3.625 C-61.4275 -3.625 -54.1675 -3.625 -46.6875 -3.625 C-46.6875 -0.325 -46.6875 2.975 -46.6875 6.375 C-46.0275 6.375 -45.3675 6.375 -44.6875 6.375 C-44.45417969 5.77945313 -44.22085938 5.18390625 -43.98046875 4.5703125 C-41.03198852 -0.43586844 -34.46732134 -2.91307146 -29.25 -5 C-18.69680833 -6.85143713 -9.21086687 -5.61068032 0 0 Z " fill="#8A58EA" transform="translate(782.6875,699.625)"/>
<path d="M0 0 C7.26 0 14.52 0 22 0 C22 30.03 22 60.06 22 91 C14.74 91 7.48 91 0 91 C-0.495 86.545 -0.495 86.545 -1 82 C-1.94875 82.9075 -2.8975 83.815 -3.875 84.75 C-12.93409736 92.32017641 -22.55876805 93.01386537 -33.95605469 92.22314453 C-42.20369812 91.32272096 -48.50197396 87.02456306 -54 81 C-59.12513249 74.37514681 -61.25989243 67.6624078 -61.22705078 59.23852539 C-61.22689972 57.93770523 -61.22674866 56.63688507 -61.22659302 55.29664612 C-61.21638281 53.89698123 -61.20595087 52.49731795 -61.1953125 51.09765625 C-61.19157733 49.65034685 -61.18873274 48.20303489 -61.18673706 46.75572205 C-61.17914024 42.96634813 -61.15952625 39.17713015 -61.1373291 35.38781738 C-61.11678503 31.51312366 -61.10771712 27.63840449 -61.09765625 23.76367188 C-61.07627614 16.17570229 -61.04112679 8.58789296 -61 1 C-53.74 1 -46.48 1 -39 1 C-38.99589111 2.70462402 -38.99178223 4.40924805 -38.98754883 6.16552734 C-38.96805715 11.83348362 -38.92560029 17.5009658 -38.86790943 23.16866112 C-38.83379543 26.60097149 -38.80855412 30.03284419 -38.80444336 33.46533203 C-38.79929802 37.42259666 -38.7540262 41.37894055 -38.70703125 45.3359375 C-38.7109639 46.55300385 -38.71489655 47.77007019 -38.71894836 49.02401733 C-38.58881984 56.7115743 -37.37707647 62.57217246 -33 69 C-28.37874715 73.06155938 -23.34657614 72.48502683 -17.4609375 72.35546875 C-11.89322089 71.78361524 -8.06433215 70.06433215 -4.125 66.125 C-1.67663525 61.50031102 -0.74931564 57.19776035 -0.68115234 51.99462891 C-0.66128265 50.83387848 -0.64141296 49.67312805 -0.62094116 48.47720337 C-0.60938995 47.23949188 -0.59783875 46.0017804 -0.5859375 44.7265625 C-0.56657135 43.44768158 -0.5472052 42.16880066 -0.5272522 40.85116577 C-0.47771721 37.46792838 -0.43639765 34.08479618 -0.39910889 30.70141602 C-0.35894517 27.24225227 -0.30790956 23.78325037 -0.2578125 20.32421875 C-0.16189283 13.54957478 -0.07781395 6.77487515 0 0 Z " fill="#8857EA" transform="translate(370,696)"/>
<path d="M0 0 C7.7167291 5.96811068 12.84921297 12.26192177 15.5625 21.75 C15.5625 22.74 15.5625 23.73 15.5625 24.75 C12.0219571 24.9835806 8.48339932 25.12479801 4.9375 25.25 C3.43896484 25.35054687 3.43896484 25.35054687 1.91015625 25.453125 C-5.43576455 25.64771893 -5.43576455 25.64771893 -8.34667969 23.0390625 C-9.8984375 20.90625 -9.8984375 20.90625 -11.13427734 18.77539062 C-12.9830057 15.9022077 -15.16171795 14.18886902 -18.390625 13.078125 C-25.28068867 11.97361098 -32.34224463 12.05352255 -38.4375 15.75 C-43.68985554 20.25201904 -46.83198883 26.07425205 -47.72290039 32.95385742 C-47.83793972 35.22706434 -47.84745023 37.47435194 -47.8125 39.75 C-47.82410156 40.50539063 -47.83570313 41.26078125 -47.84765625 42.0390625 C-47.81101333 49.14778861 -45.88441405 56.07635105 -41.4375 61.75 C-36.90958431 66.08625788 -32.64441809 67.12622593 -26.4375 67.3125 C-20.90153663 67.08726809 -15.61395929 66.69883236 -11.4375 62.75 C-10.1175 60.44 -8.7975 58.13 -7.4375 55.75 C0.1525 55.75 7.7425 55.75 15.5625 55.75 C14.08998459 64.58509246 10.59910599 71.95317697 3.5625 77.75 C-10.06886356 86.15982067 -24.36794403 89.50205622 -40.2578125 85.87890625 C-52.6298843 81.41852576 -62.09304049 73.18784838 -67.75 61.25 C-68.34277429 59.76170403 -68.90697232 58.26160399 -69.4375 56.75 C-69.66308594 56.11191406 -69.88867188 55.47382812 -70.12109375 54.81640625 C-73.76155812 41.93669438 -72.4300724 27.15241554 -66.19921875 15.41796875 C-65.02404695 13.45692355 -63.77353449 11.60391105 -62.4375 9.75 C-61.880625 8.904375 -61.32375 8.05875 -60.75 7.1875 C-45.13998431 -9.26630032 -19.05850622 -12.59995041 0 0 Z " fill="#8857EA" transform="translate(880.4375,701.25)"/>
<path d="M0 0 C7.59 0 15.18 0 23 0 C23 41.91 23 83.82 23 127 C15.41 127 7.82 127 0 127 C0 85.09 0 43.18 0 0 Z " fill="#8959EA" transform="translate(267,660)"/>
<path d="M0 0 C5.81315072 3.46749341 9.28079911 8.90390582 11.2265625 15.328125 C11.6575309 18.44384884 11.70416884 21.49854382 11.6640625 24.640625 C11.65503906 25.48077148 11.64601563 26.32091797 11.63671875 27.18652344 C11.39561471 35.82943343 9.88166912 42.15051336 3.4765625 48.265625 C-2.39109661 52.86430793 -8.06396951 54.90072551 -15.5390625 54.6171875 C-21.46417522 53.85065194 -26.53351094 51.56805156 -30.7734375 47.328125 C-37.26547743 38.68465323 -38.78090058 30.01220877 -37.7734375 19.328125 C-36.00213178 11.79289473 -33.18959307 5.33623097 -26.6171875 0.859375 C-17.78429402 -4.17202002 -9.2207118 -4.15663834 0 0 Z " fill="#FDFDFE" transform="translate(469.7734375,715.671875)"/>
<path d="M0 0 C1.24007812 -0.00386719 2.48015625 -0.00773437 3.7578125 -0.01171875 C5.70300781 0.00568359 5.70300781 0.00568359 7.6875 0.0234375 C8.98429688 0.01183594 10.28109375 0.00023437 11.6171875 -0.01171875 C12.85726562 -0.00785156 14.09734375 -0.00398438 15.375 0 C16.51324219 0.00338379 17.65148437 0.00676758 18.82421875 0.01025391 C21.6875 0.3984375 21.6875 0.3984375 23.55712891 1.49926758 C25.27391355 4.38368826 25.07675409 6.84979695 25.0859375 10.18359375 C25.08880768 10.84048691 25.09167786 11.49738007 25.09463501 12.17417908 C25.09667341 13.56021997 25.09115905 14.94628978 25.07861328 16.33227539 C25.06252834 18.45719391 25.07848014 20.58021804 25.09765625 22.70507812 C25.09567428 24.05208754 25.09183155 25.39909577 25.0859375 26.74609375 C25.08255371 27.97336182 25.07916992 29.20062988 25.07568359 30.46508789 C24.94758301 31.43309326 24.81948242 32.40109863 24.6875 33.3984375 C19.61863716 36.77767939 13.63868586 35.72572673 7.6875 35.7109375 C6.39070312 35.72705078 5.09390625 35.74316406 3.7578125 35.75976562 C2.51773438 35.76041016 1.27765625 35.76105469 0 35.76171875 C-1.70736328 35.76619019 -1.70736328 35.76619019 -3.44921875 35.77075195 C-6.3125 35.3984375 -6.3125 35.3984375 -8.18212891 34.28393555 C-9.8688895 31.47036058 -9.70158702 29.12828011 -9.7109375 25.8671875 C-9.71480469 24.58199219 -9.71867188 23.29679687 -9.72265625 21.97265625 C-9.71637207 21.30411621 -9.71008789 20.63557617 -9.70361328 19.94677734 C-9.68755354 17.9052442 -9.70346671 15.86569042 -9.72265625 13.82421875 C-9.71878906 12.53902344 -9.71492187 11.25382812 -9.7109375 9.9296875 C-9.70755371 8.74955078 -9.70416992 7.56941406 -9.70068359 6.35351562 C-9.3125 3.3984375 -9.3125 3.3984375 -8.18212891 1.51513672 C-5.43117555 -0.12796339 -3.1878955 0.00947704 0 0 Z " fill="#5CCCFE" transform="translate(526.3125,335.6015625)"/>
<path d="M0 0 C1.24007812 -0.00386719 2.48015625 -0.00773437 3.7578125 -0.01171875 C5.70300781 0.00568359 5.70300781 0.00568359 7.6875 0.0234375 C8.98429688 0.01183594 10.28109375 0.00023437 11.6171875 -0.01171875 C12.85726562 -0.00785156 14.09734375 -0.00398438 15.375 0 C16.51324219 0.00338379 17.65148437 0.00676758 18.82421875 0.01025391 C21.6875 0.3984375 21.6875 0.3984375 23.55712891 1.51513672 C25.24491646 4.32714389 25.07658987 6.66959046 25.0859375 9.9296875 C25.09173828 11.85748047 25.09173828 11.85748047 25.09765625 13.82421875 C25.09137207 14.49275879 25.08508789 15.16129883 25.07861328 15.85009766 C25.06255354 17.8916308 25.07846671 19.93118458 25.09765625 21.97265625 C25.09378906 23.25785156 25.08992187 24.54304688 25.0859375 25.8671875 C25.08255371 27.04732422 25.07916992 28.22746094 25.07568359 29.44335938 C24.6875 32.3984375 24.6875 32.3984375 23.55712891 34.28173828 C20.80617555 35.92483839 18.5628955 35.78739796 15.375 35.796875 C14.13492188 35.80074219 12.89484375 35.80460937 11.6171875 35.80859375 C9.67199219 35.79119141 9.67199219 35.79119141 7.6875 35.7734375 C6.39070312 35.78503906 5.09390625 35.79664063 3.7578125 35.80859375 C2.51773438 35.80472656 1.27765625 35.80085938 0 35.796875 C-1.13824219 35.79349121 -2.27648437 35.79010742 -3.44921875 35.78662109 C-6.3125 35.3984375 -6.3125 35.3984375 -8.18212891 34.28173828 C-9.86991646 31.46973111 -9.70158987 29.12728454 -9.7109375 25.8671875 C-9.71480469 24.58199219 -9.71867188 23.29679687 -9.72265625 21.97265625 C-9.71637207 21.30411621 -9.71008789 20.63557617 -9.70361328 19.94677734 C-9.68755354 17.9052442 -9.70346671 15.86569042 -9.72265625 13.82421875 C-9.71878906 12.53902344 -9.71492187 11.25382812 -9.7109375 9.9296875 C-9.70755371 8.74955078 -9.70416992 7.56941406 -9.70068359 6.35351562 C-9.3125 3.3984375 -9.3125 3.3984375 -8.18212891 1.51513672 C-5.43117555 -0.12796339 -3.1878955 0.00947704 0 0 Z " fill="#5CCCFE" transform="translate(581.3125,284.6015625)"/>
<path d="M0 0 C1.00897339 0.00326294 1.00897339 0.00326294 2.03833008 0.0065918 C4.08859551 0.00974867 6.13741342 -0.01369197 8.1875 -0.0390625 C9.47720703 -0.03970703 10.76691406 -0.04035156 12.09570312 -0.04101562 C13.28220459 -0.04399658 14.46870605 -0.04697754 15.69116211 -0.05004883 C18.66210938 0.32226562 18.66210938 0.32226562 20.54541016 1.45263672 C23.21627061 5.92431345 22.12728721 12.21485054 22.09960938 17.25976562 C22.12958008 19.19239258 22.12958008 19.19239258 22.16015625 21.1640625 C22.15951172 22.40091797 22.15886719 23.63777344 22.15820312 24.91210938 C22.16098267 26.61161743 22.16098267 26.61161743 22.16381836 28.34545898 C21.66210938 31.32226562 21.66210938 31.32226562 20.01806641 33.69189453 C16.98989141 35.78745439 15.13620329 35.82458447 11.47070312 35.81835938 C10.27896484 35.81900391 9.08722656 35.81964844 7.859375 35.8203125 C5.99829102 35.7903418 5.99829102 35.7903418 4.09960938 35.75976562 C2.23272461 35.77040039 2.23272461 35.77040039 0.328125 35.78125 C-8.67219204 35.7179018 -8.67219204 35.7179018 -11.19384766 34.21923828 C-12.9328554 31.33573632 -12.7092838 28.87988019 -12.70117188 25.53710938 C-12.70167038 24.88021622 -12.70216888 24.22332306 -12.7026825 23.54652405 C-12.7003455 22.1604611 -12.69063888 20.77439364 -12.67407227 19.38842773 C-12.65043524 17.26377578 -12.65351871 15.1403754 -12.66015625 13.015625 C-12.61248251 1.49800852 -11.78618932 0.06485647 0 0 Z " fill="#5CCCFE" transform="translate(639.337890625,284.677734375)"/>
<path d="M0 0 C1.93456055 0.0009668 1.93456055 0.0009668 3.90820312 0.00195312 C4.57875732 0.01025146 5.24931152 0.0185498 5.94018555 0.02709961 C7.99242263 0.05073896 10.04336408 0.04765273 12.09570312 0.04101562 C22.16674657 0.09643407 22.16674657 0.09643407 24.43359375 2.36328125 C24.83222871 6.62070263 24.76261916 10.89275699 24.74926758 15.16674805 C24.74611064 17.28942331 24.76955136 19.41070061 24.79492188 21.53320312 C24.79719521 22.88150866 24.79789821 24.22981794 24.796875 25.578125 C24.79985596 26.806521 24.80283691 28.03491699 24.8059082 29.30053711 C24.43359375 32.36328125 24.43359375 32.36328125 23.28955078 34.26025391 C18.92537689 36.85395789 12.91557846 35.82880524 7.99609375 35.80078125 C6.75537109 35.82076172 5.51464844 35.84074219 4.23632812 35.86132812 C2.4487207 35.86036133 2.4487207 35.86036133 0.625 35.859375 C-0.46611084 35.86122803 -1.55722168 35.86308105 -2.68139648 35.86499023 C-5.56640625 35.36328125 -5.56640625 35.36328125 -7.92236328 33.73291016 C-10.06667438 30.64222357 -10.06862416 28.69764938 -10.0625 24.953125 C-10.06314453 23.71626953 -10.06378906 22.47941406 -10.06445312 21.20507812 C-10.04447266 19.91666016 -10.02449219 18.62824219 -10.00390625 17.30078125 C-10.01099609 16.00849609 -10.01808594 14.71621094 -10.02539062 13.38476562 C-9.96192123 4.02547051 -9.96192123 4.02547051 -8.44970703 1.49365234 C-5.62635126 -0.20094673 -3.2718101 -0.00822007 0 0 Z " fill="#5CCCFE" transform="translate(526.56640625,284.63671875)"/>
<path d="M0 0 C1.24007812 -0.00386719 2.48015625 -0.00773437 3.7578125 -0.01171875 C5.70300781 0.00568359 5.70300781 0.00568359 7.6875 0.0234375 C8.98429688 0.01183594 10.28109375 0.00023437 11.6171875 -0.01171875 C12.85726562 -0.00785156 14.09734375 -0.00398438 15.375 0 C16.51324219 0.00338379 17.65148437 0.00676758 18.82421875 0.01025391 C21.6875 0.3984375 21.6875 0.3984375 23.55712891 1.51513672 C25.24491646 4.32714389 25.07658987 6.66959046 25.0859375 9.9296875 C25.09173828 11.85748047 25.09173828 11.85748047 25.09765625 13.82421875 C25.09137207 14.49275879 25.08508789 15.16129883 25.07861328 15.85009766 C25.06255354 17.8916308 25.07846671 19.93118458 25.09765625 21.97265625 C25.09378906 23.25785156 25.08992187 24.54304688 25.0859375 25.8671875 C25.08255371 27.04732422 25.07916992 28.22746094 25.07568359 29.44335938 C24.6875 32.3984375 24.6875 32.3984375 23.55712891 34.28173828 C20.80617555 35.92483839 18.5628955 35.78739796 15.375 35.796875 C14.13492188 35.80074219 12.89484375 35.80460937 11.6171875 35.80859375 C9.67199219 35.79119141 9.67199219 35.79119141 7.6875 35.7734375 C6.39070312 35.78503906 5.09390625 35.79664063 3.7578125 35.80859375 C2.51773438 35.80472656 1.27765625 35.80085938 0 35.796875 C-1.13824219 35.79349121 -2.27648437 35.79010742 -3.44921875 35.78662109 C-6.3125 35.3984375 -6.3125 35.3984375 -8.18212891 34.28173828 C-9.86991646 31.46973111 -9.70158987 29.12728454 -9.7109375 25.8671875 C-9.71480469 24.58199219 -9.71867188 23.29679687 -9.72265625 21.97265625 C-9.71637207 21.30411621 -9.71008789 20.63557617 -9.70361328 19.94677734 C-9.68755354 17.9052442 -9.70346671 15.86569042 -9.72265625 13.82421875 C-9.71878906 12.53902344 -9.71492187 11.25382812 -9.7109375 9.9296875 C-9.70755371 8.74955078 -9.70416992 7.56941406 -9.70068359 6.35351562 C-9.3125 3.3984375 -9.3125 3.3984375 -8.18212891 1.51513672 C-5.43117555 -0.12796339 -3.1878955 0.00947704 0 0 Z " fill="#5CCCFE" transform="translate(581.3125,335.6015625)"/>
<path d="M0 0 C3.99068323 1.29697205 3.99068323 1.29697205 5.5 3.8125 C5.26459496 9.59581769 3.90678958 12.13337748 -0.234375 16.09765625 C-0.70941467 16.56183456 -1.18445435 17.02601288 -1.67388916 17.5042572 C-3.18563958 18.9760854 -4.71653505 20.42584181 -6.25 21.875 C-7.76466614 23.33183783 -9.27499765 24.7929936 -10.78326416 26.25645447 C-12.15784331 27.58612492 -13.54298359 28.90485219 -14.92871094 30.22290039 C-16.82492959 32.13262231 -18.50844732 33.99402012 -20.19628906 36.07202148 C-22.5 38.8125 -22.5 38.8125 -24.625 39.8125 C-26.5 39.8125 -26.5 39.8125 -29.5 37.8125 C-29.5 37.1525 -29.5 36.4925 -29.5 35.8125 C-30.08523438 35.565 -30.67046875 35.3175 -31.2734375 35.0625 C-33.82788889 33.62842202 -35.25320419 32.05535666 -37.125 29.8125 C-38.8733168 27.73589664 -40.57962765 25.73287235 -42.5 23.8125 C-42.8267107 20.74141945 -42.98138276 18.66199899 -41.4375 15.9375 C-38.24859607 14.08587836 -36.1122957 14.26147184 -32.5 14.8125 C-30.11262268 16.61085191 -28.46177038 18.51579322 -26.5 20.8125 C-23.1707371 19.36689289 -21.02258603 17.55853328 -18.49609375 14.96875 C-17.38524414 13.84146484 -17.38524414 13.84146484 -16.25195312 12.69140625 C-15.48818359 11.90636719 -14.72441406 11.12132812 -13.9375 10.3125 C-12.41764184 8.75818662 -10.89559753 7.20600712 -9.37109375 5.65625 C-8.36453735 4.62274414 -8.36453735 4.62274414 -7.33764648 3.56835938 C-3.34084045 -0.25056303 -3.34084045 -0.25056303 0 0 Z " fill="#5BCDFD" transform="translate(660.5,340.1875)"/>
<path d="M0 0 C7.59 0 15.18 0 23 0 C22.67 1.32 22.34 2.64 22 4 C21.67 3.67 21.34 3.34 21 3 C19.5112814 2.91330568 18.018555 2.89296506 16.52734375 2.90234375 C15.17866211 2.90717773 15.17866211 2.90717773 13.80273438 2.91210938 C12.85720703 2.92048828 11.91167969 2.92886719 10.9375 2.9375 C9.98810547 2.94201172 9.03871094 2.94652344 8.06054688 2.95117188 C5.70696935 2.9629989 3.35351523 2.97947975 1 3 C0.67 2.01 0.34 1.02 0 0 Z " fill="#7C44E8" transform="translate(873,757)"/>
<path d="M0 0 C-0.33 0.66 -0.66 1.32 -1 2 C-4.16015625 2.4140625 -4.16015625 2.4140625 -8.0625 2.625 C-9.35285156 2.69976562 -10.64320313 2.77453125 -11.97265625 2.8515625 C-12.97167969 2.90054688 -13.97070312 2.94953125 -15 3 C-12.35005657 1.59499644 -9.84288215 0.55703916 -6.9375 -0.1875 C-6.26589844 -0.36667969 -5.59429687 -0.54585937 -4.90234375 -0.73046875 C-3 -1 -3 -1 0 0 Z " fill="#152AC3" transform="translate(454,154)"/>
<path d="M0 0 C0.33 0 0.66 0 1 0 C1 2.64 1 5.28 1 8 C-0.65 8.66 -2.3 9.32 -4 10 C-2.66666667 6.66666667 -1.33333333 3.33333333 0 0 Z " fill="#081CC1" transform="translate(587,495)"/>
<path d="M0 0 C0.66 0.33 1.32 0.66 2 1 C-0.33343353 4.50015029 -2.16917814 5.40382422 -6 7 C-6.66 6.67 -7.32 6.34 -8 6 C-5.36 4.02 -2.72 2.04 0 0 Z " fill="#7C44E9" transform="translate(466,263)"/>
<path d="M0 0 C0.33 0.99 0.66 1.98 1 3 C-0.32 4.32 -1.64 5.64 -3 7 C-3.66 6.67 -4.32 6.34 -5 6 C-5 5.34 -5 4.68 -5 4 C-3.37373596 2.61767557 -1.7074998 1.28062485 0 0 Z " fill="#0925C2" transform="translate(577,510)"/>
</svg>
